<?xml version="1.0" encoding="UTF-8" standalone="no"?>
<!-- Created with matplotlib (http://matplotlib.org/) -->

<svg
   height="345.6pt"
   version="1.1"
   viewBox="0 0 460.8 345.6"
   width="460.8pt"
   id="svg111"
   sodipodi:docname="multirotor2d.svg"
   inkscape:version="1.2.2 (b0a8486541, 2022-12-01)"
   xmlns:inkscape="http://www.inkscape.org/namespaces/inkscape"
   xmlns:sodipodi="http://sodipodi.sourceforge.net/DTD/sodipodi-0.dtd"
   xmlns="http://www.w3.org/2000/svg"
   xmlns:svg="http://www.w3.org/2000/svg">
  <sodipodi:namedview
     id="namedview113"
     pagecolor="#ffffff"
     bordercolor="#000000"
     borderopacity="0.25"
     inkscape:showpageshadow="2"
     inkscape:pageopacity="0.0"
     inkscape:pagecheckerboard="0"
     inkscape:deskcolor="#d1d1d1"
     inkscape:document-units="pt"
     showgrid="false"
     inkscape:zoom="1.0660808"
     inkscape:cx="164.62167"
     inkscape:cy="230.28273"
     inkscape:window-width="2494"
     inkscape:window-height="1371"
     inkscape:window-x="66"
     inkscape:window-y="32"
     inkscape:window-maximized="1"
     inkscape:current-layer="figure_1" />
  <defs
     id="defs4">
    <style
       type="text/css"
       id="style2">
*{stroke-linecap:butt;stroke-linejoin:round;}
  </style>
    <clipPath
       id="clipPath9650">
      <path
         clip-rule="nonzero"
         d="M 0,0 H 6 V 8.855469 H 0 Z m 0,0"
         id="path8229" />
    </clipPath>
    <clipPath
       id="clipPath626">
      <path
         clip-rule="nonzero"
         d="M 5,3 H 9 V 8.855469 H 5 Z m 0,0"
         id="path1603" />
    </clipPath>
    <clipPath
       id="clipPath5074">
      <path
         clip-rule="nonzero"
         d="M 0,0 H 6 V 8.855469 H 0 Z m 0,0"
         id="path1185" />
    </clipPath>
    <clipPath
       id="clipPath6024">
      <path
         clip-rule="nonzero"
         d="M 5,3 H 9 V 8.855469 H 5 Z m 0,0"
         id="path8223" />
    </clipPath>
    <clipPath
       id="clipPath2521">
      <path
         clip-rule="nonzero"
         d="M 0,0 H 6 V 8.855469 H 0 Z m 0,0"
         id="path750" />
    </clipPath>
    <clipPath
       id="clipPath3633">
      <path
         clip-rule="nonzero"
         d="M 5,3 H 9 V 8.855469 H 5 Z m 0,0"
         id="path8709" />
    </clipPath>
    <clipPath
       id="clipPath2521-3">
      <path
         clip-rule="nonzero"
         d="M 0,0 H 6 V 8.855469 H 0 Z m 0,0"
         id="path750-6" />
    </clipPath>
    <clipPath
       id="clipPath3633-7">
      <path
         clip-rule="nonzero"
         d="M 5,3 H 9 V 8.855469 H 5 Z m 0,0"
         id="path8709-5" />
    </clipPath>
    <clipPath
       id="clipPath9218">
      <path
         clip-rule="nonzero"
         d="M 0,0 H 6 V 8.855469 H 0 Z m 0,0"
         id="path6610" />
    </clipPath>
    <clipPath
       id="clipPath6771">
      <path
         clip-rule="nonzero"
         d="M 5,3 H 9 V 8.855469 H 5 Z m 0,0"
         id="path5874" />
    </clipPath>
    <clipPath
       id="clipPath7689">
      <path
         clip-rule="nonzero"
         d="M 0,0 H 4 V 9.964844 H 0 Z m 0,0"
         id="path5520" />
    </clipPath>
    <clipPath
       id="clipPath5846">
      <path
         clip-rule="nonzero"
         d="m 4,3 h 8 V 9.964844 H 4 Z m 0,0"
         id="path4082" />
    </clipPath>
    <clipPath
       id="clipPath2431">
      <path
         clip-rule="nonzero"
         d="m 19,0 h 3 v 9.964844 h -3 z m 0,0"
         id="path3832" />
    </clipPath>
    <clipPath
       id="clipPath1706">
      <path
         clip-rule="nonzero"
         d="M 0,0 H 4.953125 V 6.917969 H 0 Z m 0,0"
         id="path4974" />
    </clipPath>
    <clipPath
       id="clipPath3021">
      <path
         clip-rule="nonzero"
         d="M 0,0 H 5 V 6.226562 H 0 Z m 0,0"
         id="path5670" />
    </clipPath>
    <clipPath
       id="clipPath3658">
      <path
         clip-rule="nonzero"
         d="M 0,0 H 3 V 6.917969 H 0 Z m 0,0"
         id="path9104" />
    </clipPath>
  </defs>
  <g
     id="figure_1">
    <rect
       style="fill:#ffffff;stroke:none;stroke-width:8.50395;stroke-dasharray:25.5118, 8.50395"
       id="rect6312"
       width="450.22476"
       height="331.13861"
       x="5.1994319"
       y="5.7528286" />
    <g
       id="patch_2">
      <path
         clip-path="url(#p0ee43c44b1)"
         d="m 134.16946,226.40691 24.54658,44.93223 -4.49322,2.45466 -24.54659,-44.93223 z"
         style="stroke:#000000;stroke-linejoin:miter"
         id="path9" />
    </g>
    <g
       id="patch_3">
      <path
         clip-path="url(#p0ee43c44b1)"
         d="m 358.83059,103.67398 24.54659,44.93222 -4.49322,2.45466 -24.54659,-44.93223 z"
         style="stroke:#000000;stroke-linejoin:miter"
         id="path12" />
    </g>
    <g
       id="patch_4"
       style="fill:#cccccc;stroke:none">
      <path
         clip-path="url(#p0ee43c44b1)"
         d="m 206.80989,186.72326 -1.86009,-1.94357 -2.99819,-1.12824 -4.03004,-0.18999 -4.94641,0.84159 -5.74322,1.92956 -6.42083,3.03143 -6.98319,4.10149 -7.43679,5.09339 -7.78952,5.96277 -8.04954,6.66983 -8.22423,7.18163 -8.31929,7.47407 -8.33813,7.53325 -8.28144,7.35639 -8.14715,6.95187 -7.93062,6.33884 -7.625252,5.54602 -7.223109,4.61006 -6.716054,3.57335 -6.09675,2.48157 -5.359838,1.38108 -4.503029,0.31628 -3.528094,-0.67283 -2.441632,-1.55277 -1.255579,-2.29833 0.0126,-2.89353 1.340074,-3.33232 2.69914,-3.61828 4.058072,-3.76394 5.382257,-3.78944 6.635567,-3.72068 7.781894,-3.58721 8.786754,-3.4199 9.618889,-3.24851 10.25172,-3.09947 10.66466,-2.99392 10.84413,-2.94606 10.78414,-2.96218 10.48671,-3.0402 9.96165,-3.16973 9.2262,-3.33296 8.30405,-3.50587 7.22432,-3.66011 6.02005,-3.76505 4.72674,-3.79021 3.38074,-3.70755 2.01756,-3.49381 0.67055,-3.13248 z"
         style="fill:#cccccc;stroke:none;stroke-linejoin:miter"
         id="path15" />
    </g>
    <g
       id="patch_5"
       style="fill:#b3b3b3;stroke:none">
      <path
         clip-path="url(#p0ee43c44b1)"
         d="m 431.47103,63.990325 -1.8601,-1.943575 -2.99818,-1.128233 -4.03004,-0.189999 -4.94641,0.841591 -5.74323,1.929562 -6.42083,3.031429 -6.98318,4.101489 -7.43679,5.093391 -7.78952,5.962773 -8.04954,6.669829 -8.22423,7.181631 -8.31929,7.474067 -8.33813,7.53326 -8.28144,7.35639 -8.14715,6.95187 -7.93063,6.33883 -7.62525,5.54602 -7.22311,4.61006 -6.71605,3.57335 -6.09675,2.48157 -5.35984,1.38108 -4.50303,0.31628 -3.52809,-0.67282 -2.44163,-1.55278 -1.25558,-2.29832 0.0126,-2.89354 1.34008,-3.33231 2.69914,-3.61828 4.05807,-3.76395 5.38225,-3.78944 6.63557,-3.72068 7.78189,-3.58721 8.78676,-3.41989 9.61888,-3.24851 10.25172,-3.09948 10.66467,-2.99392 10.84413,-2.94605 10.78414,-2.96219 10.4867,-3.040199 9.96166,-3.169732 9.2262,-3.332956 8.30405,-3.505871 7.22432,-3.660105 6.02004,-3.765053 4.72675,-3.790208 3.38073,-3.707551 2.01756,-3.493815 0.67055,-3.132474 z"
         style="fill:#b3b3b3;stroke:none;stroke-linejoin:miter"
         id="path18" />
    </g>
    <g
       id="patch_6"
       style="fill:#b3b3b3;stroke:none">
      <path
         clip-path="url(#p0ee43c44b1)"
         d="M 397.46003,126.32718 127.86667,273.60671 140.13996,296.07282 409.73333,148.79329 Z"
         style="fill:#b3b3b3;stroke:none;stroke-linejoin:miter"
         id="path21" />
    </g>
    <g
       id="patch_7"
       style="fill:#b3b3b3;stroke:none">
      <path
         clip-path="url(#p0ee43c44b1)"
         d="m 320.99143,39.749574 17.7858,16.537515 -4.49323,2.454658 49.09318,89.864453 -4.49322,2.45466 -49.09318,-89.864454 -4.49322,2.454659 z"
         style="fill:#b3b3b3;stroke:none;stroke-linejoin:miter"
         id="path24" />
    </g>
    <g
       id="patch_8"
       style="fill:#b3b3b3;stroke:none">
      <path
         clip-path="url(#p0ee43c44b1)"
         d="m 96.330293,162.48251 17.785797,16.53752 -4.49322,2.45465 49.09317,89.86446 -4.49322,2.45466 -49.09317,-89.86446 -4.49323,2.45466 z"
         style="fill:#b3b3b3;stroke:none;stroke-linejoin:miter"
         id="path27" />
    </g>
    <g
       id="patch_9"
       style="fill:#b3b3b3;stroke:#b3b3b3">
      <path
         clip-path="url(#p0ee43c44b1)"
         d="M 12.8,222.72 8.96,211.2 h 2.56 V 57.6 h 2.56 v 153.6 h 2.56 z"
         style="stroke:#b3b3b3;stroke-linejoin:miter;fill:#b3b3b3"
         id="path30" />
    </g>
    <g
       id="line2d_1"
       transform="matrix(0.65376194,0,0,1,92.895672,-0.17311903)">
      <path
         clip-path="url(#p0ee43c44b1)"
         d="m 268.8,211.2 h 192"
         style="fill:none;stroke:#000000;stroke-linecap:square"
         id="path33" />
    </g>
    <g
       id="line2d_2"
       transform="matrix(0.68080257,0,0,0.68482221,85.585054,66.780765)">
      <path
         clip-path="url(#p0ee43c44b1)"
         d="M 268.8,211.2 437.29585,119.1503"
         style="fill:none;stroke:#000000;stroke-linecap:square"
         id="path36" />
    </g>
    <g
       id="line2d_3">
      <path
         clip-path="url(#p0ee43c44b1)"
         d="m 364.8,211.2 -0.0208,-1.99986 -0.0625,-1.99898 -0.10412,-1.99726 -0.1457,-1.99464 -0.18722,-1.99119 -0.22866,-1.98684 -0.27001,-1.98166 -0.31122,-1.9756 -0.35231,-1.96869 -0.39325,-1.96092 -0.43401,-1.9523 -0.47459,-1.94284 -0.51496,-1.93253 -0.5551,-1.92138 -0.59501,-1.90941 -0.63465,-1.89659 -0.67403,-1.88296 -0.71311,-1.86851 -0.75188,-1.85325 -0.79032,-1.83719 -0.82842,-1.82032 -0.86616,-1.80267 -0.90353,-1.78424 -0.94049,-1.76502"
         style="fill:none;stroke:#000000;stroke-linecap:square"
         id="path39" />
    </g>
    <g
       id="patch_10">
      <path
         d="m 310.35772,266.16142 q -20.17644,-26.684 -39.67858,-52.4762"
         style="fill:none;stroke:#000000;stroke-linecap:round"
         id="path42" />
      <path
         d="m 272.6404,224.23764 -1.96126,-10.55242 9.61869,4.76244"
         style="fill:none;stroke:#000000;stroke-linecap:round"
         id="path44" />
    </g>
    <g
       inkscape:label=""
       transform="matrix(3.0298192,0,0,3.0298192,108.25315,135.79148)"
       id="g1973">
      <g
         clip-path="url(#clipPath2521)"
         id="g1963"
         transform="translate(-0.53125,0.11225)">
        <g
           fill="#000000"
           fill-opacity="1"
           id="g1961">
          <g
             id="g1959"
             transform="translate(0,6.9190001)">
            <path
               d="m 3.65625,-3.984375 h 0.859375 c 0.203125,0 0.296875,0 0.296875,-0.203125 0,-0.109375 -0.09375,-0.109375 -0.265625,-0.109375 H 3.71875 L 3.921875,-5.4375 c 0.046875,-0.203125 0.1875,-0.90625 0.25,-1.03125 0.078125,-0.1875 0.25,-0.34375 0.46875,-0.34375 0.03125,0 0.296875,0 0.484375,0.1875 -0.4375,0.03125 -0.546875,0.390625 -0.546875,0.53125 0,0.234375 0.1875,0.359375 0.375,0.359375 C 5.21875,-5.734375 5.5,-5.96875 5.5,-6.34375 c 0,-0.453125 -0.453125,-0.6875 -0.859375,-0.6875 -0.34375,0 -0.96875,0.1875 -1.265625,1.171875 -0.0625,0.203125 -0.09375,0.3125 -0.328125,1.5625 h -0.6875 c -0.203125,0 -0.3125,0 -0.3125,0.1875 0,0.125 0.09375,0.125 0.28125,0.125 h 0.65625 L 2.25,-0.046875 c -0.1875,0.96875 -0.359375,1.875 -0.875,1.875 -0.046875,0 -0.28125,0 -0.484375,-0.1875 C 1.359375,1.609375 1.453125,1.25 1.453125,1.109375 1.453125,0.875 1.265625,0.75 1.078125,0.75 0.8125,0.75 0.53125,0.984375 0.53125,1.359375 c 0,0.4375 0.4375,0.6875 0.84375,0.6875 0.546875,0 0.953125,-0.59375 1.125,-0.96875 0.328125,-0.625 0.546875,-1.828125 0.5625,-1.90625 z m 0,0"
               id="path1957" />
          </g>
        </g>
      </g>
      <g
         clip-path="url(#clipPath3633)"
         id="g1971"
         transform="translate(-0.53125,0.11225)">
        <g
           fill="#000000"
           fill-opacity="1"
           id="g1969">
          <g
             id="g1967"
             transform="translate(4.8779998,8.4130001)">
            <path
               d="m 2.328125,-4.4375 c 0,-0.1875 0,-0.1875 -0.203125,-0.1875 -0.453125,0.4375 -1.078125,0.4375 -1.359375,0.4375 v 0.25 c 0.15625,0 0.625,0 1,-0.1875 v 3.546875 c 0,0.234375 0,0.328125 -0.6875,0.328125 H 0.8125 V 0 c 0.125,0 0.984375,-0.03125 1.234375,-0.03125 0.21875,0 1.09375,0.03125 1.25,0.03125 V -0.25 H 3.03125 c -0.703125,0 -0.703125,-0.09375 -0.703125,-0.328125 z m 0,0"
               id="path1965" />
          </g>
        </g>
      </g>
    </g>
    <g
       inkscape:label=""
       transform="matrix(3.0578554,0,0,3.0578554,344.98356,23.601275)"
       id="g3007">
      <g
         clip-path="url(#clipPath9218)"
         id="g22"
         transform="translate(-0.53125,0.11225)">
        <g
           fill="#000000"
           fill-opacity="1"
           id="g20">
          <g
             id="use18"
             transform="translate(0,6.9190001)">
            <path
               d="m 3.65625,-3.984375 h 0.859375 c 0.203125,0 0.296875,0 0.296875,-0.203125 0,-0.109375 -0.09375,-0.109375 -0.265625,-0.109375 H 3.71875 L 3.921875,-5.4375 c 0.046875,-0.203125 0.1875,-0.90625 0.25,-1.03125 0.078125,-0.1875 0.25,-0.34375 0.46875,-0.34375 0.03125,0 0.296875,0 0.484375,0.1875 -0.4375,0.03125 -0.546875,0.390625 -0.546875,0.53125 0,0.234375 0.1875,0.359375 0.375,0.359375 C 5.21875,-5.734375 5.5,-5.96875 5.5,-6.34375 c 0,-0.453125 -0.453125,-0.6875 -0.859375,-0.6875 -0.34375,0 -0.96875,0.1875 -1.265625,1.171875 -0.0625,0.203125 -0.09375,0.3125 -0.328125,1.5625 h -0.6875 c -0.203125,0 -0.3125,0 -0.3125,0.1875 0,0.125 0.09375,0.125 0.28125,0.125 h 0.65625 L 2.25,-0.046875 c -0.1875,0.96875 -0.359375,1.875 -0.875,1.875 -0.046875,0 -0.28125,0 -0.484375,-0.1875 C 1.359375,1.609375 1.453125,1.25 1.453125,1.109375 1.453125,0.875 1.265625,0.75 1.078125,0.75 0.8125,0.75 0.53125,0.984375 0.53125,1.359375 c 0,0.4375 0.4375,0.6875 0.84375,0.6875 0.546875,0 0.953125,-0.59375 1.125,-0.96875 0.328125,-0.625 0.546875,-1.828125 0.5625,-1.90625 z m 0,0"
               id="path34" />
          </g>
        </g>
      </g>
      <g
         clip-path="url(#clipPath6771)"
         id="g28"
         transform="translate(-0.53125,0.11225)">
        <g
           fill="#000000"
           fill-opacity="1"
           id="g26">
          <g
             id="use24"
             transform="translate(4.8779998,8.4130001)">
            <path
               d="M 3.515625,-1.265625 H 3.28125 c -0.015625,0.15625 -0.09375,0.5625 -0.1875,0.625 C 3.046875,-0.59375 2.515625,-0.59375 2.40625,-0.59375 H 1.125 c 0.734375,-0.640625 0.984375,-0.84375 1.390625,-1.171875 0.515625,-0.40625 1,-0.84375 1,-1.5 0,-0.84375 -0.734375,-1.359375 -1.625,-1.359375 -0.859375,0 -1.453125,0.609375 -1.453125,1.25 0,0.34375 0.296875,0.390625 0.375,0.390625 0.15625,0 0.359375,-0.125 0.359375,-0.375 0,-0.125 -0.046875,-0.375 -0.40625,-0.375 C 0.984375,-4.21875 1.453125,-4.375 1.78125,-4.375 c 0.703125,0 1.0625,0.546875 1.0625,1.109375 0,0.609375 -0.4375,1.078125 -0.65625,1.328125 L 0.515625,-0.265625 C 0.4375,-0.203125 0.4375,-0.1875 0.4375,0 h 2.875 z m 0,0"
               id="path38" />
          </g>
        </g>
      </g>
    </g>
    <g
       inkscape:label=""
       transform="matrix(2.3784099,0,0,2.3784099,287.84887,266.72341)"
       id="g3955">
      <g
         clip-path="url(#clipPath7689)"
         id="g34"
         transform="translate(-0.984375,0.0123749)">
        <g
           fill="#000000"
           fill-opacity="1"
           id="g32">
          <g
             id="use30"
             transform="translate(0,7.4720001)">
            <path
               d="m 3.296875,2.390625 c 0,-0.03125 0,-0.046875 -0.171875,-0.21875 C 1.890625,0.921875 1.5625,-0.96875 1.5625,-2.5 c 0,-1.734375 0.375,-3.46875 1.609375,-4.703125 0.125,-0.125 0.125,-0.140625 0.125,-0.171875 0,-0.078125 -0.03125,-0.109375 -0.09375,-0.109375 -0.109375,0 -1,0.6875 -1.59375,1.953125 -0.5,1.09375 -0.625,2.203125 -0.625,3.03125 0,0.78125 0.109375,1.984375 0.65625,3.125 C 2.25,1.84375 3.09375,2.5 3.203125,2.5 c 0.0625,0 0.09375,-0.03125 0.09375,-0.109375 z m 0,0"
               id="path58" />
          </g>
        </g>
      </g>
      <g
         clip-path="url(#clipPath5846)"
         id="g42"
         transform="translate(-0.984375,0.0123749)">
        <g
           fill="#000000"
           fill-opacity="1"
           id="g40">
          <g
             id="use36"
             transform="translate(3.8740001,7.4720001)">
            <path
               d="M 3.328125,-3.015625 C 3.390625,-3.265625 3.625,-4.1875 4.3125,-4.1875 c 0.046875,0 0.296875,0 0.5,0.125 C 4.53125,-4 4.34375,-3.765625 4.34375,-3.515625 c 0,0.15625 0.109375,0.34375 0.375,0.34375 0.21875,0 0.53125,-0.171875 0.53125,-0.578125 0,-0.515625 -0.578125,-0.65625 -0.921875,-0.65625 -0.578125,0 -0.921875,0.53125 -1.046875,0.75 -0.25,-0.65625 -0.78125,-0.75 -1.078125,-0.75 -1.03125,0 -1.609375,1.28125 -1.609375,1.53125 0,0.109375 0.109375,0.109375 0.125,0.109375 0.078125,0 0.109375,-0.03125 0.125,-0.109375 0.34375,-1.0625 1,-1.3125 1.34375,-1.3125 0.1875,0 0.53125,0.09375 0.53125,0.671875 0,0.3125 -0.171875,0.96875 -0.53125,2.375 -0.15625,0.609375 -0.515625,1.03125 -0.953125,1.03125 -0.0625,0 -0.28125,0 -0.5,-0.125 0.25,-0.0625 0.46875,-0.265625 0.46875,-0.546875 0,-0.265625 -0.21875,-0.34375 -0.359375,-0.34375 -0.3125,0 -0.546875,0.25 -0.546875,0.578125 0,0.453125 0.484375,0.65625 0.921875,0.65625 0.671875,0 1.03125,-0.703125 1.046875,-0.75 0.125,0.359375 0.484375,0.75 1.078125,0.75 1.03125,0 1.59375,-1.28125 1.59375,-1.53125 0,-0.109375 -0.078125,-0.109375 -0.109375,-0.109375 -0.09375,0 -0.109375,0.046875 -0.140625,0.109375 -0.328125,1.078125 -1,1.3125 -1.3125,1.3125 -0.390625,0 -0.546875,-0.3125 -0.546875,-0.65625 0,-0.21875 0.046875,-0.4375 0.15625,-0.875 z m 0,0"
               id="path62" />
          </g>
          <g
             id="use38"
             transform="translate(9.567626,7.4720001)">
            <path
               d="m 2.03125,-0.015625 c 0,-0.65625 -0.25,-1.046875 -0.640625,-1.046875 -0.328125,0 -0.53125,0.25 -0.53125,0.53125 C 0.859375,-0.265625 1.0625,0 1.390625,0 1.5,0 1.640625,-0.046875 1.734375,-0.125 1.765625,-0.15625 1.78125,-0.15625 1.78125,-0.15625 c 0.015625,0 0.015625,0 0.015625,0.140625 0,0.75 -0.34375,1.34375 -0.671875,1.671875 -0.109375,0.109375 -0.109375,0.125 -0.109375,0.15625 0,0.078125 0.046875,0.109375 0.09375,0.109375 0.109375,0 0.921875,-0.765625 0.921875,-1.9375 z m 0,0"
               id="path66" />
          </g>
        </g>
      </g>
      <g
         fill="#000000"
         fill-opacity="1"
         id="g46"
         transform="translate(-0.984375,0.0123749)">
        <g
           id="use44"
           transform="translate(13.99899,7.4720001)">
          <path
             d="m 1.328125,-0.828125 c 0.53125,-0.578125 0.828125,-0.828125 1.1875,-1.140625 0,0 0.609375,-0.53125 0.96875,-0.890625 C 4.4375,-3.78125 4.65625,-4.265625 4.65625,-4.3125 c 0,-0.09375 -0.09375,-0.09375 -0.109375,-0.09375 -0.078125,0 -0.09375,0.015625 -0.15625,0.109375 -0.296875,0.484375 -0.5,0.640625 -0.734375,0.640625 -0.25,0 -0.359375,-0.15625 -0.515625,-0.328125 -0.1875,-0.21875 -0.359375,-0.421875 -0.6875,-0.421875 -0.75,0 -1.203125,0.921875 -1.203125,1.140625 0,0.046875 0.03125,0.109375 0.109375,0.109375 0.09375,0 0.109375,-0.046875 0.140625,-0.109375 0.1875,-0.46875 0.765625,-0.46875 0.84375,-0.46875 0.203125,0 0.390625,0.0625 0.625,0.140625 0.40625,0.15625 0.515625,0.15625 0.765625,0.15625 -0.359375,0.421875 -1.1875,1.140625 -1.375,1.296875 l -0.90625,0.84375 C 0.78125,-0.625 0.421875,-0.0625 0.421875,0.015625 c 0,0.09375 0.109375,0.09375 0.125,0.09375 0.078125,0 0.09375,-0.015625 0.15625,-0.125 0.234375,-0.359375 0.53125,-0.625 0.859375,-0.625 0.21875,0 0.328125,0.09375 0.578125,0.375 0.15625,0.21875 0.34375,0.375 0.625,0.375 1,0 1.578125,-1.265625 1.578125,-1.53125 0,-0.046875 -0.046875,-0.109375 -0.125,-0.109375 -0.09375,0 -0.109375,0.0625 -0.140625,0.140625 C 3.84375,-0.75 3.203125,-0.5625 2.875,-0.5625 c -0.1875,0 -0.375,-0.0625 -0.578125,-0.125 -0.34375,-0.125 -0.5,-0.171875 -0.703125,-0.171875 -0.015625,0 -0.171875,0 -0.265625,0.03125 z m 0,0"
             id="path70" />
        </g>
      </g>
      <g
         clip-path="url(#clipPath2431)"
         id="g52"
         transform="translate(-0.984375,0.0123749)">
        <g
           fill="#000000"
           fill-opacity="1"
           id="g50">
          <g
             id="use48"
             transform="translate(19.066999,7.4720001)">
            <path
               d="m 2.875,-2.5 c 0,-0.765625 -0.109375,-1.96875 -0.65625,-3.109375 -0.59375,-1.21875 -1.453125,-1.875 -1.546875,-1.875 -0.0625,0 -0.109375,0.046875 -0.109375,0.109375 0,0.03125 0,0.046875 0.1875,0.234375 0.984375,0.984375 1.546875,2.5625 1.546875,4.640625 0,1.71875 -0.359375,3.46875 -1.59375,4.71875 C 0.5625,2.34375 0.5625,2.359375 0.5625,2.390625 0.5625,2.453125 0.609375,2.5 0.671875,2.5 0.765625,2.5 1.671875,1.8125 2.25,0.546875 2.765625,-0.546875 2.875,-1.65625 2.875,-2.5 Z m 0,0"
               id="path74" />
          </g>
        </g>
      </g>
    </g>
    <g
       inkscape:label=""
       transform="matrix(2.8413454,0,0,2.8413454,342.23254,187.70944)"
       id="g4203">
      <g
         clip-path="url(#clipPath1706)"
         id="g16"
         transform="translate(-0.421875,0.11325)">
        <g
           fill="#000000"
           fill-opacity="1"
           id="g14">
          <g
             id="use12"
             transform="translate(0,6.9180002)">
            <path
               d="m 4.53125,-4.984375 c 0,-0.65625 -0.171875,-2.046875 -1.1875,-2.046875 -1.390625,0 -2.921875,2.8125 -2.921875,5.09375 0,0.9375 0.28125,2.046875 1.1875,2.046875 1.40625,0 2.921875,-2.859375 2.921875,-5.09375 z M 1.46875,-3.625 C 1.640625,-4.25 1.84375,-5.046875 2.25,-5.765625 2.515625,-6.25 2.875,-6.8125 3.328125,-6.8125 c 0.484375,0 0.546875,0.640625 0.546875,1.203125 0,0.5 -0.078125,1 -0.3125,1.984375 z m 2,0.328125 C 3.359375,-2.84375 3.15625,-2 2.765625,-1.28125 c -0.34375,0.6875 -0.71875,1.171875 -1.15625,1.171875 -0.328125,0 -0.53125,-0.296875 -0.53125,-1.21875 0,-0.421875 0.0625,-1 0.3125,-1.96875 z m 0,0"
               id="path22" />
          </g>
        </g>
      </g>
    </g>
    <g
       inkscape:label=""
       transform="matrix(3.1324054,0,0,3.1324054,18.11821,126.46755)"
       id="g4452">
      <g
         clip-path="url(#clipPath3021)"
         id="g4450"
         transform="translate(-0.15625,0.11625)">
        <g
           fill="#000000"
           fill-opacity="1"
           id="g4448">
          <g
             id="g4446"
             transform="translate(0,4.29)">
            <path
               d="M 4.6875,-3.765625 C 4.703125,-3.8125 4.71875,-3.875 4.71875,-3.9375 c 0,-0.171875 -0.109375,-0.265625 -0.28125,-0.265625 -0.09375,0 -0.375,0.0625 -0.40625,0.421875 -0.1875,-0.359375 -0.53125,-0.625 -0.9375,-0.625 -1.125,0 -2.359375,1.390625 -2.359375,2.828125 0,0.984375 0.59375,1.578125 1.3125,1.578125 0.59375,0 1.0625,-0.46875 1.15625,-0.578125 L 3.21875,-0.5625 C 3.015625,0.3125 2.890625,0.734375 2.890625,0.75 2.84375,0.84375 2.515625,1.828125 1.453125,1.828125 1.265625,1.828125 0.9375,1.8125 0.65625,1.71875 0.953125,1.640625 1.0625,1.375 1.0625,1.203125 c 0,-0.15625 -0.109375,-0.34375 -0.375,-0.34375 -0.21875,0 -0.53125,0.171875 -0.53125,0.578125 0,0.40625 0.359375,0.609375 1.3125,0.609375 1.25,0 1.96875,-0.78125 2.125,-1.375 z M 3.40625,-1.28125 C 3.34375,-1.015625 3.109375,-0.765625 2.890625,-0.578125 2.6875,-0.40625 2.375,-0.21875 2.078125,-0.21875 c -0.5,0 -0.640625,-0.515625 -0.640625,-0.921875 0,-0.46875 0.28125,-1.65625 0.5625,-2.15625 C 2.265625,-3.78125 2.6875,-4.1875 3.109375,-4.1875 c 0.65625,0 0.796875,0.8125 0.796875,0.859375 0,0.046875 -0.015625,0.109375 -0.03125,0.140625 z m 0,0"
               id="path4444" />
          </g>
        </g>
      </g>
    </g>
    <g
       inkscape:label=""
       transform="matrix(2.5542034,0,0,2.5542034,311.26866,151.27434)"
       id="g4715">
      <g
         clip-path="url(#clipPath3658)"
         id="g4713"
         transform="translate(-0.4375,0.00387478)">
        <g
           fill="#000000"
           fill-opacity="1"
           id="g4711">
          <g
             id="g4709"
             transform="translate(0,6.9180002)">
            <path
               d="m 2.578125,-6.8125 c 0,0 0,-0.109375 -0.140625,-0.109375 -0.21875,0 -0.953125,0.078125 -1.21875,0.109375 -0.078125,0 -0.1875,0.015625 -0.1875,0.203125 0,0.109375 0.109375,0.109375 0.25,0.109375 0.484375,0 0.5,0.09375 0.5,0.171875 L 1.75,-6.125 0.484375,-1.140625 C 0.453125,-1.03125 0.4375,-0.96875 0.4375,-0.8125 c 0,0.578125 0.4375,0.921875 0.90625,0.921875 0.328125,0 0.578125,-0.203125 0.75,-0.5625 0.171875,-0.375 0.296875,-0.953125 0.296875,-0.96875 0,-0.109375 -0.09375,-0.109375 -0.125,-0.109375 -0.09375,0 -0.109375,0.046875 -0.125,0.1875 C 1.96875,-0.703125 1.78125,-0.109375 1.375,-0.109375 c -0.296875,0 -0.296875,-0.3125 -0.296875,-0.453125 0,-0.25 0.015625,-0.296875 0.0625,-0.484375 z m 0,0"
               id="path4707" />
          </g>
        </g>
      </g>
    </g>
  </g>
  <defs
     id="defs109">
    <clipPath
       id="p0ee43c44b1">
      <rect
         height="345.6"
         width="460.8"
         x="0"
         y="0"
         id="rect106" />
    </clipPath>
  </defs>
</svg>
