<?xml version="1.0" encoding="UTF-8" standalone="no"?>
<!-- Created with matplotlib (http://matplotlib.org/) -->

<svg
   height="193.84358pt"
   version="1.1"
   viewBox="0 0 252.28765 193.84358"
   width="252.28764pt"
   id="svg111"
   sodipodi:docname="multirotor1d.svg"
   inkscape:version="1.2.2 (b0a8486541, 2022-12-01)"
   xmlns:inkscape="http://www.inkscape.org/namespaces/inkscape"
   xmlns:sodipodi="http://sodipodi.sourceforge.net/DTD/sodipodi-0.dtd"
   xmlns="http://www.w3.org/2000/svg"
   xmlns:svg="http://www.w3.org/2000/svg">
  <sodipodi:namedview
     id="namedview113"
     pagecolor="#ffffff"
     bordercolor="#000000"
     borderopacity="0.25"
     inkscape:showpageshadow="2"
     inkscape:pageopacity="0.0"
     inkscape:pagecheckerboard="0"
     inkscape:deskcolor="#d1d1d1"
     inkscape:document-units="pt"
     showgrid="false"
     inkscape:zoom="1.0660808"
     inkscape:cx="192.76212"
     inkscape:cy="-119.59694"
     inkscape:window-width="2494"
     inkscape:window-height="1371"
     inkscape:window-x="66"
     inkscape:window-y="32"
     inkscape:window-maximized="1"
     inkscape:current-layer="figure_1" />
  <defs
     id="defs4">
    <marker
       style="overflow:visible"
       id="Arrow5"
       refX="0"
       refY="0"
       orient="auto-start-reverse"
       inkscape:stockid="Arrow5"
       markerWidth="3.6470687"
       markerHeight="4"
       viewBox="0 0 5.166595 5.6665725"
       inkscape:isstock="true"
       inkscape:collect="always"
       preserveAspectRatio="xMidYMid">
      <path
         transform="scale(0.5)"
         style="fill:context-stroke;fill-rule:evenodd;stroke:context-stroke;stroke-width:1pt"
         d="m 6,0 c -3,1 -7,3 -9,5 0,0 0,-4 2,-5 -2,-1 -2,-5 -2,-5 2,2 6,4 9,5 z"
         id="path8893" />
    </marker>
    <style
       type="text/css"
       id="style2">
*{stroke-linecap:butt;stroke-linejoin:round;}
  </style>
    <clipPath
       id="clipPath9650">
      <path
         clip-rule="nonzero"
         d="M 0,0 H 6 V 8.855469 H 0 Z m 0,0"
         id="path8229" />
    </clipPath>
    <clipPath
       id="clipPath626">
      <path
         clip-rule="nonzero"
         d="M 5,3 H 9 V 8.855469 H 5 Z m 0,0"
         id="path1603" />
    </clipPath>
    <clipPath
       id="clipPath5074">
      <path
         clip-rule="nonzero"
         d="M 0,0 H 6 V 8.855469 H 0 Z m 0,0"
         id="path1185" />
    </clipPath>
    <clipPath
       id="clipPath6024">
      <path
         clip-rule="nonzero"
         d="M 5,3 H 9 V 8.855469 H 5 Z m 0,0"
         id="path8223" />
    </clipPath>
    <clipPath
       id="clipPath2521">
      <path
         clip-rule="nonzero"
         d="M 0,0 H 6 V 8.855469 H 0 Z m 0,0"
         id="path750" />
    </clipPath>
    <clipPath
       id="clipPath3633">
      <path
         clip-rule="nonzero"
         d="M 5,3 H 9 V 8.855469 H 5 Z m 0,0"
         id="path8709" />
    </clipPath>
    <clipPath
       id="clipPath2521-3">
      <path
         clip-rule="nonzero"
         d="M 0,0 H 6 V 8.855469 H 0 Z m 0,0"
         id="path750-6" />
    </clipPath>
    <clipPath
       id="clipPath3633-7">
      <path
         clip-rule="nonzero"
         d="M 5,3 H 9 V 8.855469 H 5 Z m 0,0"
         id="path8709-5" />
    </clipPath>
    <clipPath
       id="clipPath9218">
      <path
         clip-rule="nonzero"
         d="M 0,0 H 6 V 8.855469 H 0 Z m 0,0"
         id="path6610" />
    </clipPath>
    <clipPath
       id="clipPath6771">
      <path
         clip-rule="nonzero"
         d="M 5,3 H 9 V 8.855469 H 5 Z m 0,0"
         id="path5874" />
    </clipPath>
    <clipPath
       id="clipPath7689">
      <path
         clip-rule="nonzero"
         d="M 0,0 H 4 V 9.964844 H 0 Z m 0,0"
         id="path5520" />
    </clipPath>
    <clipPath
       id="clipPath5846">
      <path
         clip-rule="nonzero"
         d="m 4,3 h 8 V 9.964844 H 4 Z m 0,0"
         id="path4082" />
    </clipPath>
    <clipPath
       id="clipPath2431">
      <path
         clip-rule="nonzero"
         d="m 19,0 h 3 v 9.964844 h -3 z m 0,0"
         id="path3832" />
    </clipPath>
    <clipPath
       id="clipPath1706">
      <path
         clip-rule="nonzero"
         d="M 0,0 H 4.953125 V 6.917969 H 0 Z m 0,0"
         id="path4974" />
    </clipPath>
    <clipPath
       id="clipPath3021">
      <path
         clip-rule="nonzero"
         d="M 0,0 H 5 V 6.226562 H 0 Z m 0,0"
         id="path5670" />
    </clipPath>
    <clipPath
       id="clipPath3658">
      <path
         clip-rule="nonzero"
         d="M 0,0 H 3 V 6.917969 H 0 Z m 0,0"
         id="path9104" />
    </clipPath>
  </defs>
  <g
     id="figure_1"
     transform="translate(-92.066734,-115.50126)">
    <rect
       style="fill:#ffffff;stroke:none;stroke-width:4.87051;stroke-dasharray:14.6114, 4.87051"
       id="rect6312"
       width="252.28764"
       height="193.84358"
       x="92.066734"
       y="115.50126" />
    <g
       id="patch_4"
       style="fill:#cccccc;stroke:none"
       transform="rotate(29,215.24116,412.22881)">
      <path
         clip-path="url(#p0ee43c44b1)"
         d="m 206.80989,186.72326 -1.86009,-1.94357 -2.99819,-1.12824 -4.03004,-0.18999 -4.94641,0.84159 -5.74322,1.92956 -6.42083,3.03143 -6.98319,4.10149 -7.43679,5.09339 -7.78952,5.96277 -8.04954,6.66983 -8.22423,7.18163 -8.31929,7.47407 -8.33813,7.53325 -8.28144,7.35639 -8.14715,6.95187 -7.93062,6.33884 -7.625252,5.54602 -7.223109,4.61006 -6.716054,3.57335 -6.09675,2.48157 -5.359838,1.38108 -4.503029,0.31628 -3.528094,-0.67283 -2.441632,-1.55277 -1.255579,-2.29833 0.0126,-2.89353 1.340074,-3.33232 2.69914,-3.61828 4.058072,-3.76394 5.382257,-3.78944 6.635567,-3.72068 7.781894,-3.58721 8.786754,-3.4199 9.618889,-3.24851 10.25172,-3.09947 10.66466,-2.99392 10.84413,-2.94606 10.78414,-2.96218 10.48671,-3.0402 9.96165,-3.16973 9.2262,-3.33296 8.30405,-3.50587 7.22432,-3.66011 6.02005,-3.76505 4.72674,-3.79021 3.38074,-3.70755 2.01756,-3.49381 0.67055,-3.13248 z"
         style="fill:#cccccc;stroke:none;stroke-linejoin:miter"
         id="path15" />
    </g>
    <g
       id="patch_8"
       style="fill:#b3b3b3;stroke:none" />
    <g
       id="patch_9"
       style="fill:#b3b3b3;stroke:#b3b3b3"
       transform="translate(87.376769,76.267669)">
      <path
         clip-path="url(#p0ee43c44b1)"
         d="M 12.8,222.72 8.96,211.2 h 2.56 V 57.6 h 2.56 v 153.6 h 2.56 z"
         style="fill:#b3b3b3;stroke:#b3b3b3;stroke-linejoin:miter"
         id="path30" />
    </g>
    <g
       inkscape:label=""
       transform="matrix(3.0298192,0,0,3.0298192,221.87621,126.44844)"
       id="g1973">
      <g
         clip-path="url(#clipPath2521)"
         id="g1963"
         transform="translate(-0.53125,0.11225)">
        <g
           fill="#000000"
           fill-opacity="1"
           id="g1961">
          <g
             id="g1959"
             transform="translate(0,6.9190001)">
            <path
               d="m 3.65625,-3.984375 h 0.859375 c 0.203125,0 0.296875,0 0.296875,-0.203125 0,-0.109375 -0.09375,-0.109375 -0.265625,-0.109375 H 3.71875 L 3.921875,-5.4375 c 0.046875,-0.203125 0.1875,-0.90625 0.25,-1.03125 0.078125,-0.1875 0.25,-0.34375 0.46875,-0.34375 0.03125,0 0.296875,0 0.484375,0.1875 -0.4375,0.03125 -0.546875,0.390625 -0.546875,0.53125 0,0.234375 0.1875,0.359375 0.375,0.359375 C 5.21875,-5.734375 5.5,-5.96875 5.5,-6.34375 c 0,-0.453125 -0.453125,-0.6875 -0.859375,-0.6875 -0.34375,0 -0.96875,0.1875 -1.265625,1.171875 -0.0625,0.203125 -0.09375,0.3125 -0.328125,1.5625 h -0.6875 c -0.203125,0 -0.3125,0 -0.3125,0.1875 0,0.125 0.09375,0.125 0.28125,0.125 h 0.65625 L 2.25,-0.046875 c -0.1875,0.96875 -0.359375,1.875 -0.875,1.875 -0.046875,0 -0.28125,0 -0.484375,-0.1875 C 1.359375,1.609375 1.453125,1.25 1.453125,1.109375 1.453125,0.875 1.265625,0.75 1.078125,0.75 0.8125,0.75 0.53125,0.984375 0.53125,1.359375 c 0,0.4375 0.4375,0.6875 0.84375,0.6875 0.546875,0 0.953125,-0.59375 1.125,-0.96875 0.328125,-0.625 0.546875,-1.828125 0.5625,-1.90625 z m 0,0"
               id="path1957" />
          </g>
        </g>
      </g>
      <g
         clip-path="url(#clipPath3633)"
         id="g1971"
         transform="translate(-0.53125,0.11225)">
        <g
           fill="#000000"
           fill-opacity="1"
           id="g1969">
          <g
             id="g1967"
             transform="translate(4.8779998,8.4130001)">
            <path
               d="m 2.328125,-4.4375 c 0,-0.1875 0,-0.1875 -0.203125,-0.1875 -0.453125,0.4375 -1.078125,0.4375 -1.359375,0.4375 v 0.25 c 0.15625,0 0.625,0 1,-0.1875 v 3.546875 c 0,0.234375 0,0.328125 -0.6875,0.328125 H 0.8125 V 0 c 0.125,0 0.984375,-0.03125 1.234375,-0.03125 0.21875,0 1.09375,0.03125 1.25,0.03125 V -0.25 H 3.03125 c -0.703125,0 -0.703125,-0.09375 -0.703125,-0.328125 z m 0,0"
               id="path1965" />
          </g>
        </g>
      </g>
    </g>
    <g
       inkscape:label=""
       transform="matrix(2.3784099,0,0,2.3784099,191.84887,287.72341)"
       id="g3955">
      <g
         fill="#000000"
         fill-opacity="1"
         id="g46"
         transform="translate(-0.984375,0.0123749)">
        <g
           id="use44"
           transform="translate(13.99899,7.4720001)">
          <path
             d="m 1.328125,-0.828125 c 0.53125,-0.578125 0.828125,-0.828125 1.1875,-1.140625 0,0 0.609375,-0.53125 0.96875,-0.890625 C 4.4375,-3.78125 4.65625,-4.265625 4.65625,-4.3125 c 0,-0.09375 -0.09375,-0.09375 -0.109375,-0.09375 -0.078125,0 -0.09375,0.015625 -0.15625,0.109375 -0.296875,0.484375 -0.5,0.640625 -0.734375,0.640625 -0.25,0 -0.359375,-0.15625 -0.515625,-0.328125 -0.1875,-0.21875 -0.359375,-0.421875 -0.6875,-0.421875 -0.75,0 -1.203125,0.921875 -1.203125,1.140625 0,0.046875 0.03125,0.109375 0.109375,0.109375 0.09375,0 0.109375,-0.046875 0.140625,-0.109375 0.1875,-0.46875 0.765625,-0.46875 0.84375,-0.46875 0.203125,0 0.390625,0.0625 0.625,0.140625 0.40625,0.15625 0.515625,0.15625 0.765625,0.15625 -0.359375,0.421875 -1.1875,1.140625 -1.375,1.296875 l -0.90625,0.84375 C 0.78125,-0.625 0.421875,-0.0625 0.421875,0.015625 c 0,0.09375 0.109375,0.09375 0.125,0.09375 0.078125,0 0.09375,-0.015625 0.15625,-0.125 0.234375,-0.359375 0.53125,-0.625 0.859375,-0.625 0.21875,0 0.328125,0.09375 0.578125,0.375 0.15625,0.21875 0.34375,0.375 0.625,0.375 1,0 1.578125,-1.265625 1.578125,-1.53125 0,-0.046875 -0.046875,-0.109375 -0.125,-0.109375 -0.09375,0 -0.109375,0.0625 -0.140625,0.140625 C 3.84375,-0.75 3.203125,-0.5625 2.875,-0.5625 c -0.1875,0 -0.375,-0.0625 -0.578125,-0.125 -0.34375,-0.125 -0.5,-0.171875 -0.703125,-0.171875 -0.015625,0 -0.171875,0 -0.265625,0.03125 z m 0,0"
             id="path70" />
        </g>
      </g>
    </g>
    <g
       inkscape:label=""
       transform="matrix(3.1324054,0,0,3.1324054,109.92722,158.54116)"
       id="g4452">
      <g
         clip-path="url(#clipPath3021)"
         id="g4450"
         transform="translate(-0.15625,0.11625)">
        <g
           fill="#000000"
           fill-opacity="1"
           id="g4448">
          <g
             id="g4446"
             transform="translate(0,4.29)">
            <path
               d="M 4.6875,-3.765625 C 4.703125,-3.8125 4.71875,-3.875 4.71875,-3.9375 c 0,-0.171875 -0.109375,-0.265625 -0.28125,-0.265625 -0.09375,0 -0.375,0.0625 -0.40625,0.421875 -0.1875,-0.359375 -0.53125,-0.625 -0.9375,-0.625 -1.125,0 -2.359375,1.390625 -2.359375,2.828125 0,0.984375 0.59375,1.578125 1.3125,1.578125 0.59375,0 1.0625,-0.46875 1.15625,-0.578125 L 3.21875,-0.5625 C 3.015625,0.3125 2.890625,0.734375 2.890625,0.75 2.84375,0.84375 2.515625,1.828125 1.453125,1.828125 1.265625,1.828125 0.9375,1.8125 0.65625,1.71875 0.953125,1.640625 1.0625,1.375 1.0625,1.203125 c 0,-0.15625 -0.109375,-0.34375 -0.375,-0.34375 -0.21875,0 -0.53125,0.171875 -0.53125,0.578125 0,0.40625 0.359375,0.609375 1.3125,0.609375 1.25,0 1.96875,-0.78125 2.125,-1.375 z M 3.40625,-1.28125 C 3.34375,-1.015625 3.109375,-0.765625 2.890625,-0.578125 2.6875,-0.40625 2.375,-0.21875 2.078125,-0.21875 c -0.5,0 -0.640625,-0.515625 -0.640625,-0.921875 0,-0.46875 0.28125,-1.65625 0.5625,-2.15625 C 2.265625,-3.78125 2.6875,-4.1875 3.109375,-4.1875 c 0.65625,0 0.796875,0.8125 0.796875,0.859375 0,0.046875 -0.015625,0.109375 -0.03125,0.140625 z m 0,0"
               id="path4444" />
          </g>
        </g>
      </g>
    </g>
    <rect
       style="fill:#b3b3b3;stroke-width:8.50395;stroke-dasharray:25.5118, 8.50395"
       id="rect7591"
       width="38.495865"
       height="49.615631"
       x="211.71866"
       y="241.49188" />
    <path
       style="fill:#b3b3b3;stroke:#b3b3b3;stroke-width:4;stroke-dasharray:none;marker-end:url(#Arrow5)"
       d="M 230.54722,245.08067 V 166.35124"
       id="path7699" />
  </g>
  <defs
     id="defs109">
    <clipPath
       id="p0ee43c44b1">
      <rect
         height="345.60001"
         width="460.79999"
         x="0"
         y="0"
         id="rect106" />
    </clipPath>
  </defs>
</svg>
